<?xml version="1.0" encoding="UTF-8"?>
<svg id="Camada_1" data-name="Camada 1" xmlns="http://www.w3.org/2000/svg" viewBox="0 0 645.26 592.99">
  <path d="m0,47.66c2.8-12.49,7.45-23.98,17.12-32.92C28.54,4.17,42.23,0,57.48,0c91.59,0,183.18-.04,274.78.14,4.43,0,9.18,1.33,13.22,3.23,14.05,6.61,27.76,13.93,41.79,20.57,3.82,1.81,8.3,2.92,12.52,3.04,13.43.38,26.89.3,40.33.07,6.32-.11,11.34,1.87,15.69,6.49,6.05,6.43,12.14,12.87,18.75,18.71,7,6.18,10.72,13.28,9.5,22.73-.21,1.62-.03,3.3-.03,5.86,2.85,0,5.27,0,7.7,0,44.75,0,89.49-.02,134.24.04,3.12,0,6.32.2,9.36.87,5.88,1.3,10.1,7.02,9.95,12.93-.15,5.75-4.2,11.09-9.87,12.36-3.04.68-6.23.89-9.35.9-44.54.05-89.07.04-133.61.04-2.5,0-5.01,0-7.67,0-.29,1.08-.78,1.89-.67,2.62,1.97,12.39-3.4,21.35-12.6,29.04-5.78,4.84-10.88,10.52-16.09,16.01-4.03,4.24-8.71,6.16-14.57,6.09-14.07-.17-28.15-.21-42.22.06-3.42.06-7.09.92-10.17,2.41-14.18,6.83-28.06,14.27-42.32,20.92-4.59,2.14-9.99,3.47-15.04,3.53-27.31.34-54.62.12-81.93.18-9.68.02-8.85-1.49-9.92,8.99-.11,1.04-.22,2.08-.43,4.02,3.27,0,6.33-.09,9.39.02,10.71.36,16.48,6.6,15.06,17.11-2.31,17.08-4.96,34.12-7.73,51.14-1.45,8.91-6.33,12.6-15.85,12.82-11.59.27-11.78.25-13.38,11.63-3.24,23.12-6.16,46.27-9.42,69.39-.59,4.18.49,6.42,4.4,8.3,14.19,6.81,28.15,14.07,42.27,21.03,21.59,10.64,32.19,28.12,32.29,52.03.12,30.31.21,60.62-.02,90.93-.21,27.88-15.32,47.88-41.26,54.86-4.8,1.29-9.95,1.78-14.94,1.79-52.1.12-104.2.24-156.29.01-27.63-.12-47.38-15.03-54.47-40.81-1.53-5.59-1.95-11.62-1.99-17.45-.18-31.99,0-63.99-.12-95.98-.07-17.77,5.09-33.79,18.95-44.93,18.19-14.62,25.68-33.24,29.52-55.8,8.29-48.67,18.91-96.94,28.56-145.38.2-.99.29-1.99.53-3.72-12.28,0-24.22.33-36.13-.1-10.01-.37-20.42-.11-29.88-2.82-20.71-5.92-32.99-20.59-37.29-41.82-.2-1-.67-1.95-1.02-2.92,0-31.15,0-62.3,0-93.46Zm322.32,113.99V27.41c-2.19-.11-4.04-.27-5.89-.27-86.49-.01-172.98-.04-259.47,0-19.32.01-30.04,10.7-30.13,30.03-.11,24.19.39,48.39-.16,72.56-.45,19.67,11.45,32.25,32.22,32.13,85.44-.51,170.88-.21,256.32-.21h7.11Zm-56.85,269.37c-2.85-7.09-7.87-10.64-13.59-13.5-18.01-9.03-36.03-18.02-53.99-27.12-7.72-3.91-10.29-8.26-9.27-16.07,6.17-47.11,12.44-94.21,18.68-141.31,1.92-14.5,3.85-29.01,5.75-43.33-.99-.43-1.37-.74-1.74-.74-25.2-.07-50.4-.05-75.6-.21-3.93-.03-4.17,2.37-4.74,5.2-12.1,60.79-24.17,121.59-36.59,182.32-.95,4.63-3.69,9.41-6.89,12.95-8.02,8.89-16.83,17.05-25.21,25.61-4.29,4.39-7.25,9.47-7.27,16.21h210.46Zm-211.29,27.43c-.11,2.16-.29,4.01-.29,5.86-.02,23.78-.07,47.56,0,71.33.06,19.51,10.52,30.1,29.9,30.12,51.66.07,103.33.06,154.99,0,19.44-.02,29.95-10.56,30.02-30,.08-23.99.03-47.98,0-71.97,0-1.79-.28-3.59-.43-5.35H54.18ZM403.58,134.81c10.94,0,21.21.15,31.46-.13,1.99-.05,4.13-1.49,5.88-2.74,13.14-9.4,17.4-21.69,16.94-38.21-.4-14.75-2.88-26.51-15.16-35.17-2.01-1.41-3.83-4.25-5.82-4.33-11.03-.43-22.08-.2-33.31-.2v80.79Zm-53.81,18.48c8.7-4.36,16.45-8.01,23.92-12.18,1.5-.84,2.73-3.6,2.74-5.48.17-27.55.14-55.09.06-82.64,0-1.54-.33-3.95-1.3-4.48-8.15-4.44-16.48-8.53-25.42-13.06v117.84Z"/>
  <path d="m107.27,80.8c-13,0-26,.16-38.99-.06-8.38-.14-13.63-4.91-14.18-12.17-.6-7.88,4.71-14.34,13.19-14.44,26.83-.3,53.67-.27,80.5-.01,7.86.08,13.35,6.02,13.47,13.13.12,7.3-5.6,13.26-13.74,13.43-13.41.28-26.83.08-40.25.08,0,.01,0,.02,0,.03Z"/>
  <path d="m107.46,108.03c13.42,0,26.83-.06,40.25.03,5.78.04,10.02,2.82,12.35,8.14,2.14,4.88,1.67,9.99-2.14,13.42-2.87,2.59-7.23,4.88-10.96,4.94-26.2.42-52.41.34-78.61.17-8.73-.06-14.37-5.71-14.33-13.46.04-7.82,5.52-13.1,14.44-13.24,12.99-.21,25.99-.05,38.99-.05,0,.02,0,.03,0,.05Z"/>
</svg>